<svg width="105" height="105" viewBox="0 0 105 105" fill="none" xmlns="http://www.w3.org/2000/svg">
<path d="M18 35C18 25.7174 21.6875 16.815 28.2513 10.2513C34.815 3.68749 43.7174 0 53 0C62.2826 0 71.185 3.68749 77.7487 10.2513C84.3125 16.815 88 25.7174 88 35C88 45.125 84.65 56.18 78.75 64.78C73.54 72.38 66.035 78.435 56.75 79.74V81.25C56.75 83.32 58.43 85 60.5 85H76.75C78.2274 85 79.6903 85.291 81.0552 85.8564C82.4201 86.4217 83.6603 87.2504 84.705 88.295C85.7496 89.3397 86.5783 90.5799 87.1436 91.9448C87.709 93.3097 88 94.7726 88 96.25V101.25C88 102.245 87.6049 103.198 86.9017 103.902C86.1984 104.605 85.2446 105 84.25 105C83.2554 105 82.3016 104.605 81.5983 103.902C80.8951 103.198 80.5 102.245 80.5 101.25V96.25C80.5 95.2554 80.1049 94.3016 79.4017 93.5983C78.6984 92.8951 77.7446 92.5 76.75 92.5H60.5C57.5163 92.5 54.6548 91.3147 52.545 89.205C50.4353 87.0952 49.25 84.2337 49.25 81.25V79.74C39.965 78.435 32.46 72.375 27.25 64.78C21.35 56.18 18 45.125 18 35ZM57.6 15.53C56.6341 15.3079 55.6196 15.4771 54.7781 16.0008C53.9367 16.5244 53.3367 17.3599 53.1094 18.3246C52.8821 19.2893 53.046 20.3047 53.5651 21.1489C54.0843 21.9932 54.9165 22.5976 55.88 22.83C58.1319 23.366 60.1912 24.5155 61.8294 26.151C63.4675 27.7865 64.6204 29.844 65.16 32.095C65.2739 32.5743 65.4811 33.0265 65.7698 33.4258C66.0585 33.825 66.423 34.1635 66.8425 34.4219C67.262 34.6802 67.7282 34.8535 68.2147 34.9316C68.7011 35.0098 69.1982 34.9914 69.6775 34.8775C70.1568 34.7636 70.609 34.5564 71.0083 34.2677C71.4075 33.979 71.746 33.6145 72.0044 33.195C72.2627 32.7755 72.436 32.3093 72.5141 31.8228C72.5923 31.3364 72.5739 30.8393 72.46 30.36C71.5982 26.755 69.7528 23.4599 67.1292 20.8415C64.5056 18.2232 61.2068 16.3845 57.6 15.53Z" fill="url(#paint0_linear_69_271)"/>
<defs>
<linearGradient id="paint0_linear_69_271" x1="34" y1="12.5" x2="81" y2="94" gradientUnits="userSpaceOnUse">
<stop stop-color="#33E1D7"/>
<stop offset="1" stop-color="#0066FF"/>
</linearGradient>
</defs>
</svg>
